<svg width="48" height="44" viewBox="0 0 48 44" fill="none" xmlns="http://www.w3.org/2000/svg">
<path d="M46.04 42.7501C46.04 43.4401 45.49 44.0001 44.81 44.0001H1.23C0.55 44.0001 0 43.4401 0 42.7501C0 42.0601 0.55 41.5001 1.23 41.5001H44.81C45.49 41.5001 46.04 42.0601 46.04 42.7501ZM21.77 22.2101C22.01 22.4401 22.31 22.5501 22.61 22.5501C22.94 22.5501 23.27 22.4201 23.51 22.1501C23.98 21.6501 23.95 20.8601 23.45 20.3801C21.34 18.3801 21.79 14.3101 23.61 12.0101C26.08 8.89007 26.62 3.33007 23.45 0.340065C22.95 -0.129935 22.17 -0.109935 21.71 0.400065C21.24 0.900065 21.27 1.70007 21.77 2.17007C23.67 3.96007 23.63 7.99007 21.68 10.4501C20.4 12.0701 19.64 14.2301 19.59 16.4001C19.53 18.7601 20.3 20.8201 21.77 22.2101ZM48 19.6101V22.0101C48 25.4501 45.24 28.2501 41.85 28.2501H39.09C37.22 33.5201 32.24 37.3001 26.41 37.3001H19.64C12.21 37.3001 6.16 31.1801 6.16 23.6401V11.2301C6.16 10.5401 6.72 9.98007 7.4 9.98007H15.31C16.92 7.50007 16.85 3.85007 15.06 2.17007C14.56 1.69007 14.54 0.900065 15 0.400065C15.47 -0.109935 16.25 -0.129935 16.75 0.340065C19.91 3.33007 19.37 8.89007 16.9 12.0101C15.08 14.3101 14.63 18.3801 16.75 20.3801C17.24 20.8601 17.27 21.6501 16.81 22.1501C16.34 22.6601 15.56 22.6801 15.06 22.2101C13.6 20.8201 12.82 18.7601 12.88 16.4001C12.91 15.0501 13.22 13.7001 13.76 12.4801H8.63V23.6401C8.63 29.8001 13.57 34.8001 19.64 34.8001H26.41C32.47 34.8001 37.41 29.8001 37.41 23.6401V12.4801H28.13C27.45 12.4801 26.9 11.9201 26.9 11.2301C26.9 10.5401 27.45 9.98007 28.13 9.98007H38.65C39.33 9.98007 39.88 10.5401 39.88 11.2301V13.3801H41.85C45.24 13.3801 48 16.1701 48 19.6101ZM45.53 19.6101C45.53 17.5501 43.88 15.8801 41.85 15.8801H39.88V25.7501H41.85C43.88 25.7501 45.53 24.0701 45.53 22.0101V19.6101Z" fill="#C7B299"/>
</svg>
