<svg width="44" height="44" viewBox="0 0 44 44" fill="none" xmlns="http://www.w3.org/2000/svg">
<path d="M28.87 23.37H15.13C14.37 23.37 13.75 23.99 13.75 24.75C13.75 25.51 14.37 26.12 15.13 26.12H28.87C29.63 26.12 30.25 25.51 30.25 24.75C30.25 23.99 29.63 23.37 28.87 23.37ZM31.62 15.13H12.38C11.62 15.13 11 15.74 11 16.5C11 17.26 11.62 17.87 12.38 17.87H31.62C32.38 17.87 33 17.26 33 16.5C33 15.74 32.38 15.13 31.62 15.13ZM22 0C9.85 0 0 8.62 0 19.25C0 25.32 3.23 30.73 8.25 34.26V44L17.89 38.15C19.22 38.37 20.59 38.5 22 38.5C34.15 38.5 44 29.88 44 19.25C44 8.62 34.15 0 22 0ZM22 35.75C20.39 35.75 18.84 35.56 17.35 35.24L10.88 39.13L10.97 32.76C6.01 29.77 2.75 24.84 2.75 19.25C2.75 10.14 11.37 2.75 22 2.75C32.63 2.75 41.25 10.14 41.25 19.25C41.25 28.36 32.63 35.75 22 35.75Z" fill="#C7B299"/>
</svg>
