<svg width="44" height="44" viewBox="0 0 44 44" fill="none" xmlns="http://www.w3.org/2000/svg">
<path d="M19.94 30.25C25.63 30.25 30.25 24.62 30.25 17.7C30.25 10.78 25.63 5.16 19.94 5.16C17.12 5.16 14.5 6.5 12.54 8.94C10.66 11.3 9.62 14.41 9.62 17.7C9.62 24.62 14.25 30.25 19.94 30.25ZM19.94 7.91C24.11 7.91 27.5 12.3 27.5 17.7C27.5 23.11 24.11 27.5 19.94 27.5C15.77 27.5 12.37 23.11 12.37 17.7C12.37 12.3 15.77 7.91 19.94 7.91ZM28.6 28.87C27.84 28.87 27.22 29.49 27.22 30.25C27.22 31.01 27.84 31.62 28.6 31.62C33.3 31.62 37.12 35.45 37.12 40.15C37.12 40.76 36.63 41.25 36.02 41.25H3.85C3.24 41.25 2.75 40.76 2.75 40.15C2.75 35.45 6.57 31.62 11.27 31.62C12.03 31.62 12.65 31.01 12.65 30.25C12.65 29.49 12.03 28.87 11.27 28.87C5.06 28.87 0 33.93 0 40.15C0 42.27 1.73 44 3.85 44H36.02C38.15 44 39.87 42.27 39.87 40.15C39.87 33.93 34.82 28.87 28.6 28.87ZM20.94 3.63C21.93 3.05 22.98 2.75 24.06 2.75C28.23 2.75 31.62 7.15 31.62 12.55C31.62 13.52 31.52 14.47 31.31 15.38C31.13 16.11 31.59 16.85 32.33 17.03C32.43 17.05 32.54 17.06 32.64 17.06C33.27 17.06 33.83 16.64 33.98 16C34.24 14.89 34.37 13.73 34.37 12.55C34.37 5.63 29.75 0 24.06 0C22.5 0 20.94 0.44 19.54 1.26C18.89 1.65 18.67 2.49 19.06 3.14C19.45 3.8 20.29 4.01 20.94 3.63ZM33 23.37C32.24 23.37 31.62 23.99 31.62 24.75C31.62 25.51 32.24 26.12 33 26.12C37.7 26.12 41.25 30.04 41.25 34.74C41.25 34.9 41.22 35.05 41.16 35.19C40.85 35.89 41.16 36.7 41.85 37.01C42.03 37.09 42.22 37.12 42.41 37.12C42.94 37.12 43.44 36.82 43.67 36.31C43.89 35.81 44 35.29 44 34.74C44 28.53 39.22 23.37 33 23.37Z" fill="#C7B299"/>
</svg>
