<svg width="44" height="44" viewBox="0 0 44 44" fill="none" xmlns="http://www.w3.org/2000/svg">
<path d="M30.25 0C29.83 0 29.4 0.03 28.98 0.06C28.83 0.08 28.68 0.1 28.52 0.12C28.27 0.15 28.01 0.19 27.76 0.24C27.57 0.27 27.38 0.31 27.2 0.35C26.99 0.4 26.78 0.46 26.57 0.51C26.37 0.57 26.18 0.62 25.98 0.69C25.81 0.74 25.63 0.81 25.46 0.88C25 1.05 24.55 1.24 24.12 1.46C24.03 1.5 23.94 1.54 23.86 1.59C23.63 1.71 23.41 1.84 23.18 1.98C23.06 2.05 22.94 2.12 22.82 2.2C22.6 2.34 22.4 2.48 22.19 2.63C22.13 2.68 22.06 2.72 22 2.76C19.62 0.97 16.73 0 13.75 0C6.17 0 0 6.17 0 13.75C0 26.19 8 37.45 21.41 43.86C21.59 43.95 21.8 44 22 44C22.2 44 22.41 43.95 22.59 43.86C36 37.45 44 26.19 44 13.75C44 6.17 37.83 0 30.25 0ZM22 41.1C9.93 35.11 2.75 24.93 2.75 13.75C2.75 7.68 7.68 2.75 13.75 2.75C15.97 2.75 18.12 3.43 19.94 4.68C17.81 7.11 16.5 10.28 16.5 13.75C16.5 14.51 17.11 15.12 17.88 15.12C18.64 15.12 19.25 14.51 19.25 13.75C19.25 10.48 20.7 7.54 22.97 5.52C23.18 5.33 23.4 5.16 23.63 4.99C23.68 4.95 23.73 4.91 23.78 4.87C24 4.71 24.22 4.56 24.45 4.42C24.51 4.38 24.58 4.34 24.64 4.3C24.86 4.17 25.09 4.05 25.32 3.93C25.4 3.89 25.48 3.85 25.56 3.81C25.78 3.71 26.01 3.61 26.23 3.52C26.33 3.48 26.43 3.45 26.54 3.41C26.75 3.33 26.97 3.26 27.18 3.2C27.32 3.16 27.44 3.12 27.58 3.09C27.78 3.04 27.97 2.99 28.17 2.95C28.35 2.92 28.54 2.9 28.72 2.87C28.87 2.85 29.03 2.82 29.19 2.8C29.54 2.77 29.89 2.75 30.25 2.75C36.32 2.75 41.25 7.68 41.25 13.75C41.25 24.93 34.07 35.11 22 41.1ZM30.25 5.5C29.49 5.5 28.87 6.12 28.87 6.87C28.87 7.63 29.49 8.25 30.25 8.25C33.28 8.25 35.75 10.72 35.75 13.75C35.75 14.51 36.36 15.12 37.12 15.12C37.88 15.12 38.5 14.51 38.5 13.75C38.5 9.2 34.8 5.5 30.25 5.5Z" fill="#C7B299"/>
</svg>
