<svg width="54" height="44" viewBox="0 0 54 44" fill="none" xmlns="http://www.w3.org/2000/svg">
<path d="M52.31 40.61H1.69C0.76 40.61 0 41.37 0 42.3C0 43.24 0.76 44 1.69 44H52.31C53.24 44 54 43.24 54 42.3C54 41.37 53.24 40.61 52.31 40.61ZM28.69 6.77V3.39H32.06C32.99 3.39 33.75 2.63 33.75 1.69C33.75 0.76 32.99 0 32.06 0H21.94C21.01 0 20.25 0.76 20.25 1.69C20.25 2.63 21.01 3.39 21.94 3.39H25.31C25.31 3.39 25.3 6.91 25.31 6.77C11.19 7.65 0 19.46 0 33.84C0 35.22 0 34.6 0 35.54C0 36.47 0.76 37.23 1.69 37.23H52.31C53.24 37.23 54 36.47 54 35.54C54 34.6 54 35.32 54 33.84C54 19.46 42.81 7.65 28.69 6.77ZM3.38 33.84C3.38 20.76 13.95 10.16 27 10.16C40.05 10.16 50.62 20.76 50.62 33.84H3.38Z" fill="#C7B299"/>
</svg>
