<svg width="48" height="48" viewBox="0 0 48 48" fill="none" xmlns="http://www.w3.org/2000/svg">
<path d="M46.6971 17.1134C46.08 16.5061 45.1004 16.5061 44.4931 17.1134L30.9257 30.671L11.8629 39.0759L8.92408 36.1371L17.3192 17.0644L30.8865 3.50688C31.4939 2.88974 31.4939 1.91015 30.8865 1.3028C30.2694 0.695453 29.2898 0.695453 28.6824 1.3028L14.7037 15.2718L0.519184 47.471L32.7184 33.2963L46.6971 19.3175C47.3045 18.7101 47.3045 17.7208 46.6971 17.1134ZM26.9388 27.8889C27.2424 28.1828 27.6343 28.3395 28.0359 28.3395C28.4375 28.3395 28.8294 28.1828 29.1429 27.8889L42.2008 14.8212C42.8082 14.2138 42.8082 13.2342 42.2008 12.6171C41.5837 12.0097 40.6041 12.0097 39.9967 12.6171L26.9388 25.6848C26.3314 26.2922 26.3314 27.2718 26.9388 27.8889ZM23.5298 24.4799C23.8335 24.7738 24.2253 24.9306 24.6269 24.9306C25.0286 24.9306 25.4204 24.7738 25.7241 24.4799L38.7918 11.4122C39.3992 10.8048 39.3992 9.81545 38.7918 9.20811C38.1747 8.60076 37.1951 8.60076 36.5877 9.20811L23.5298 22.2661C22.9127 22.8734 22.9127 23.8628 23.5298 24.4799ZM20.111 21.0612C20.4147 21.3648 20.8163 21.5216 21.218 21.5216C21.6196 21.5216 22.0114 21.3648 22.3151 21.0612L35.3829 8.00321C35.9902 7.39586 35.9902 6.40647 35.3829 5.79913C34.7755 5.19178 33.7861 5.19178 33.1788 5.79913L20.111 18.8571C19.5037 19.4644 19.5037 20.4538 20.111 21.0612Z" fill="#555555"/>
</svg>
