<svg width="52" height="36" viewBox="0 0 52 36" fill="none" xmlns="http://www.w3.org/2000/svg">
<path d="M8.99999 13.25C9.99999 11.19 12.47 9.63996 14.74 9.63996H40.95V7.97996C40.95 6.61996 39.84 5.49996 38.49 5.49996H27.67V4.05996C27.67 1.99996 26.02 0.329956 23.99 0.329956H17.7C16.72 0.329956 15.79 0.719956 15.09 1.42996C14.39 2.12996 14.01 3.05996 14.01 4.05996V5.49996H3.19999C1.83999 5.49996 0.73999 6.61996 0.73999 7.97996V30.15L8.99999 13.25ZM16.47 4.05996C16.47 3.72996 16.6 3.41996 16.83 3.17996C17.06 2.93996 17.37 2.81996 17.7 2.81996H23.99C24.67 2.81996 25.22 3.36996 25.22 4.05996V5.49996H16.47V4.05996ZM41.92 33.76C41.33 34.98 39.73 35.98 38.38 35.98H3.07999C1.72999 35.98 1.10999 34.98 1.70999 33.76L11.2 14.34C11.8 13.12 13.39 12.12 14.74 12.12H50.04C51.39 12.12 52.01 13.12 51.41 14.34L41.92 33.76Z" fill="#555555"/>
</svg>
