<svg width="44" height="44" viewBox="0 0 44 44" fill="none" xmlns="http://www.w3.org/2000/svg">
<path d="M43.93 21.8499C43.93 20.2299 42.76 18.4999 41.32 17.9899C39.88 17.4799 38.49 16.2399 38.08 15.2499C37.68 14.2699 37.78 12.3999 38.44 11.0199C39.09 9.63995 38.69 7.58995 37.55 6.43995C36.4 5.29995 34.36 4.89995 32.98 5.55995C31.6 6.20995 29.73 6.31995 28.75 5.90995C27.76 5.50995 26.52 4.10995 26.01 2.66995C25.49 1.22995 23.76 0.0699463 22.14 0.0699463C20.52 0.0699463 18.79 1.22995 18.28 2.66995C17.77 4.10995 16.52 5.50995 15.54 5.90995C14.56 6.31995 12.69 6.20995 11.31 5.55995C9.92999 4.89995 7.87998 5.29995 6.73998 6.43995C5.58998 7.58995 5.18999 9.63995 5.84999 11.0199C6.50998 12.3999 6.60998 14.2699 6.19999 15.2499C5.79998 16.2299 4.40999 17.4799 2.96999 17.9899C1.52999 18.4999 0.359985 20.2299 0.359985 21.8499C0.359985 23.4699 1.52999 25.1999 2.96999 25.7099C4.40999 26.2199 5.79999 27.4699 6.20999 28.4499C6.60999 29.4299 6.50998 31.2999 5.84999 32.6799C5.18999 34.0599 5.58998 36.1099 6.73998 37.2599C7.87998 38.3999 9.92999 38.7999 11.31 38.1399C12.69 37.4899 14.56 37.3799 15.54 37.7899C16.52 38.1999 17.77 39.5899 18.28 41.0299C18.79 42.4699 20.52 43.6299 22.14 43.6299C23.76 43.6299 25.49 42.4699 26.01 41.0299C26.52 39.5899 27.76 38.1999 28.74 37.7899C29.73 37.3799 31.6 37.4899 32.98 38.1399C34.36 38.7999 36.4 38.3999 37.55 37.2599C38.69 36.1099 39.09 34.0599 38.44 32.6799C37.78 31.2999 37.67 29.4299 38.08 28.4499C38.48 27.4699 39.88 26.2199 41.32 25.7099C42.76 25.1999 43.93 23.4699 43.93 21.8499ZM22.14 29.8399C17.72 29.8399 14.15 26.2699 14.15 21.8599C14.15 17.4399 17.72 13.8699 22.14 13.8699C26.55 13.8699 30.13 17.4399 30.13 21.8599C30.13 26.2699 26.55 29.8399 22.14 29.8399Z" fill="#555555"/>
</svg>
