<svg width="100" height="100" viewBox="0 0 100 100" fill="none" xmlns="http://www.w3.org/2000/svg">
<circle cx="50" cy="50" r="50" fill="black" fill-opacity="0.5"/>
<g clip-path="url(#clip0)">
<path d="M44.93 66.8201C44.64 66.8201 44.34 66.7601 44.06 66.6301C43.34 66.2901 42.87 65.5601 42.87 64.7601V35.2401C42.87 34.4401 43.34 33.7101 44.06 33.3701C44.78 33.0301 45.64 33.1401 46.25 33.6501L63.97 48.4201C64.44 48.8101 64.71 49.3901 64.71 50.0001C64.71 50.6101 64.44 51.1901 63.97 51.5801L46.25 66.3401C45.88 66.6601 45.41 66.8201 44.93 66.8201ZM46.99 39.6301V60.3601L59.43 50.0001L46.99 39.6301ZM49.94 85.0001C44.07 85.0001 38.17 83.5401 32.83 80.5301C31.84 79.9701 31.49 78.7101 32.05 77.7201C32.6 76.7301 33.86 76.3801 34.85 76.9401C46.87 83.7001 62.08 81.6101 71.85 71.8501C83.89 59.8001 83.89 40.2001 71.85 28.1501C59.8 16.1001 40.2 16.1001 28.15 28.1501C16.1 40.2001 16.1 59.8001 28.15 71.8501C28.95 72.6501 28.95 73.9501 28.15 74.7601C27.35 75.5601 26.04 75.5601 25.24 74.7601C11.58 61.1001 11.58 38.8901 25.24 25.2401C38.89 11.5801 61.1 11.5801 74.76 25.2401C88.41 38.8901 88.41 61.1001 74.76 74.7601C68.03 81.4801 59.03 85.0001 49.94 85.0001Z" fill="white"/>
</g>
<defs>
<clipPath id="clip0">
<rect width="70" height="70" fill="white" transform="translate(15 15)"/>
</clipPath>
</defs>
</svg>
